<svg xmlns="http://www.w3.org/2000/svg" width="39.998" height="44.442" viewBox="0 0 39.998 44.442">
  <path id="book-reader" d="M41.176,20.2a26.443,26.443,0,0,0-4.844-.422,14.244,14.244,0,0,0-2.755.178,13.133,13.133,0,0,0-4.244-3.666,8.466,8.466,0,0,0,2.222-5.711,8.577,8.577,0,1,0-17.155,0,8.466,8.466,0,0,0,2.222,5.711,13.577,13.577,0,0,0-4.244,3.644,15.474,15.474,0,0,0-2.711-.156,26.442,26.442,0,0,0-4.844.467A2.222,2.222,0,0,0,3,22.466V40.8A2.236,2.236,0,0,0,5.622,43a21.666,21.666,0,0,1,4.044-.489,21.977,21.977,0,0,1,12.11,3.622h0l.289.111h0a2.422,2.422,0,0,0,.933.2,1.933,1.933,0,0,0,.622-.111h.156l.289-.111h0a21.977,21.977,0,0,1,12.266-3.711,21.666,21.666,0,0,1,4.044.4A2.236,2.236,0,0,0,43,40.709V22.377A2.222,2.222,0,0,0,41.176,20.2ZM23,6.444a4.133,4.133,0,0,1,0,8.244h0a4.133,4.133,0,0,1,0-8.244ZM20.777,40.509A26.487,26.487,0,0,0,9.666,38.065a15.039,15.039,0,0,0-2.222.111V24.221a21.4,21.4,0,0,1,5.6.111h.244a22.221,22.221,0,0,1,7.488,2.844ZM23,23.332a26.154,26.154,0,0,0-3.066-1.511H19.8c-.733-.289-1.467-.578-2.222-.8A8.888,8.888,0,0,1,23,19.088h0a8.888,8.888,0,0,1,5.422,1.889A27.621,27.621,0,0,0,23,23.332ZM38.554,38.176A25.776,25.776,0,0,0,25.221,40.4V27.065a21.688,21.688,0,0,1,7.488-2.711h.444a20.866,20.866,0,0,1,5.4-.133Z" transform="translate(-3 -2)" fill="#6563ff"/>
</svg>
