<svg xmlns="http://www.w3.org/2000/svg" width="40.007" height="40.019" viewBox="0 0 40.007 40.019">
  <path id="edit-alt" d="M8,34.012h8.482a2,2,0,0,0,1.42-.58L31.746,19.569h0l5.681-5.561a2,2,0,0,0,0-2.841L28.945,2.586a2,2,0,0,0-2.841,0L20.463,8.247h0L6.581,22.11A2,2,0,0,0,6,23.53v8.482A2,2,0,0,0,8,34.012ZM27.525,6.827l5.661,5.661-2.841,2.841L24.684,9.667ZM10,24.35,21.864,12.488l5.661,5.661L15.663,30.011H10ZM40.007,38.013H4a2,2,0,0,0,0,4H40.007a2,2,0,1,0,0-4Z" transform="translate(-2 -1.994)" fill="#01b81a"/>
</svg>
