<svg xmlns="http://www.w3.org/2000/svg" width="32" height="30.463" viewBox="0 0 32 30.463">
  <g id="Group_11373" data-name="Group 11373" transform="translate(-1644 3569.333)">
    <path id="Subtraction_1" data-name="Subtraction 1" d="M215.124-226.5a6.772,6.772,0,0,1-2.956-.594c-.693-.335-1.121-.766-1.119-1.125a.132.132,0,0,1,0-.019l.3-2.668a.187.187,0,0,1,.094-.142.188.188,0,0,1,.093-.025.189.189,0,0,1,.077.016l3.163,1.417a.854.854,0,0,0,.351.075.854.854,0,0,0,.351-.075l3.163-1.417a.189.189,0,0,1,.077-.016.188.188,0,0,1,.093.025.19.19,0,0,1,.094.142l.3,2.668v.02c0,.359-.426.79-1.119,1.125a6.772,6.772,0,0,1-2.962.593Zm5.576-.858h-.859v-2.788a.431.431,0,0,1,.215-.371v-1.6l-4.582,2.054a.854.854,0,0,1-.351.075.854.854,0,0,1-.351-.075l-5.52-2.475a.428.428,0,0,1-.254-.391.428.428,0,0,1,.254-.392l5.52-2.475a.854.854,0,0,1,.351-.075.854.854,0,0,1,.351.075l5.52,2.475a.428.428,0,0,1,.254.392.428.428,0,0,1-.254.391l-.509.229v1.8a.43.43,0,0,1,.215.371v2.787Zm-5.577-4.548a.138.138,0,0,1,.081.026l.915.666a.136.136,0,0,0,.079.026.139.139,0,0,0,.112-.058.132.132,0,0,0,.019-.121l-.35-1.076a.136.136,0,0,1,.049-.152l.916-.689a.15.15,0,0,0,.047-.169.136.136,0,0,0-.128-.1h-1.132c-.073,0-.114-.022-.13-.07l-.349-1.065a.129.129,0,0,0-.126-.091.138.138,0,0,0-.133.1l-.349,1.056c-.016.048-.06.073-.13.073h-1.132a.136.136,0,0,0-.128.1.15.15,0,0,0,.047.169l.916.678a.145.145,0,0,1,.049.158l-.35,1.08a.132.132,0,0,0,.019.122.139.139,0,0,0,.111.058.133.133,0,0,0,.079-.026l.916-.664a.133.133,0,0,1,.083-.025Z" transform="translate(1445 -3333.462)" fill="#7811ff"/>
    <g id="Group_11371" data-name="Group 11371" transform="translate(1.961 9.553)">
      <path id="Path_13297" data-name="Path 13297" d="M275.333,183.683a1.073,1.073,0,0,0,.142.01,1.519,1.519,0,0,0,1.51-1.549V167.2c-.132-.016-.461-.03-.593-.042v-.966a.9.9,0,0,0-.8-.907,28.006,28.006,0,0,0-5.508-.022c-.27.028-.539.061-.812.1-2.542.36-5.133,1.23-6.766,3.141h0v17.885a3.112,3.112,0,0,0,.671-.334c1.2-.954,3.965-2.554,9.055-2.554a27.413,27.413,0,0,1,3.106.187Zm-10.3-13.349a13.183,13.183,0,0,1,8.143-1.55.407.407,0,1,1-.086.81,12.4,12.4,0,0,0-7.662,1.453.408.408,0,0,1-.395-.713Zm0,2.909a13.181,13.181,0,0,1,8.143-1.55.407.407,0,0,1-.086.81,12.4,12.4,0,0,0-7.662,1.453.408.408,0,0,1-.395-.713Zm0,2.909a13.182,13.182,0,0,1,8.143-1.55.407.407,0,1,1-.086.81,12.4,12.4,0,0,0-7.662,1.453.408.408,0,0,1-.395-.713Zm.395,3.622a.408.408,0,1,1-.395-.713,13.182,13.182,0,0,1,8.143-1.55.407.407,0,1,1-.086.81,12.4,12.4,0,0,0-7.667,1.454Z" transform="translate(1396 -3735.507)" fill="#7811ff"/>
      <path id="Path_13298" data-name="Path 13298" d="M36.2,145.811h0a4.243,4.243,0,0,0-.822-.2c-.225,0,.115,0,0,0s-.1.017-.1.017h.1a37.17,37.17,0,0,0-5.469.075.962.962,0,0,0-.82.955v.966c-.263.011-.461.026-.593.042V162.61a1.534,1.534,0,0,0,1.529,1.549,1.5,1.5,0,0,0,.169-.01,27.385,27.385,0,0,1,3.107-.187c5.088,0,7.825,1.6,9.026,2.554a3.071,3.071,0,0,0,.654.334V148.94C41.34,147.016,38.706,146.167,36.2,145.811Zm4.358,14.271a.407.407,0,0,1-.554.159,12.4,12.4,0,0,0-7.662-1.453.407.407,0,0,1-.086-.81,13.184,13.184,0,0,1,8.143,1.55.407.407,0,0,1,.163.554Zm0-2.909a.407.407,0,0,1-.554.159,12.406,12.406,0,0,0-7.662-1.453.407.407,0,1,1-.086-.81,13.183,13.183,0,0,1,8.143,1.55.407.407,0,0,1,.163.554Zm0-2.909a.407.407,0,0,1-.554.159,12.4,12.4,0,0,0-7.662-1.453.407.407,0,0,1-.086-.81,13.186,13.186,0,0,1,8.143,1.55.407.407,0,0,1,.163.553Zm0-2.909a.407.407,0,0,1-.554.159,12.4,12.4,0,0,0-7.662-1.453.407.407,0,1,1-.086-.81A13.185,13.185,0,0,1,40.4,150.8a.407.407,0,0,1,.162.554Z" transform="translate(1614.592 -3715.974)" fill="#7811ff"/>
      <path id="Path_13299" data-name="Path 13299" d="M297.615,453.731c-6.833-.722-10.946.8-13.093,2.12h12.984a1.072,1.072,0,0,0,1.105-1.074v-1.932a.89.89,0,0,1-1,.886Z" transform="translate(1375.428 -4004.275)" fill="#7811ff"/>
      <path id="Path_13300" data-name="Path 13300" d="M13.512,453.731a.9.9,0,0,1-1.012-.886v1.932a1.1,1.1,0,0,0,1.135,1.074H26.618C24.473,454.534,20.345,453.01,13.512,453.731Z" transform="translate(1629.539 -4004.275)" fill="#7811ff"/>
    </g>
  </g>
</svg>
