<svg xmlns="http://www.w3.org/2000/svg" width="125.714" height="30.463" viewBox="0 0 125.714 30.463">
  <g id="Logo_Dark" data-name="Logo Dark" transform="translate(-33 -63)">
    <g id="Group_11373" data-name="Group 11373" transform="translate(-1611 3632.333)">
      <path id="Subtraction_1" data-name="Subtraction 1" d="M215.124-226.5a6.772,6.772,0,0,1-2.956-.594c-.693-.335-1.121-.766-1.119-1.125a.132.132,0,0,1,0-.019l.3-2.668a.187.187,0,0,1,.094-.142.188.188,0,0,1,.093-.025.189.189,0,0,1,.077.016l3.163,1.417a.854.854,0,0,0,.351.075.854.854,0,0,0,.351-.075l3.163-1.417a.189.189,0,0,1,.077-.016.188.188,0,0,1,.093.025.19.19,0,0,1,.094.142l.3,2.668s0,.007,0,.01,0,.006,0,.01c0,.359-.426.79-1.119,1.125A6.772,6.772,0,0,1,215.124-226.5Zm5.576-.858h-.859v-2.788a.431.431,0,0,1,.215-.371v-1.6l-4.582,2.054a.854.854,0,0,1-.351.075.854.854,0,0,1-.351-.075l-5.52-2.475a.428.428,0,0,1-.254-.391.428.428,0,0,1,.254-.392l5.52-2.475a.854.854,0,0,1,.351-.075.854.854,0,0,1,.351.075l5.52,2.475a.428.428,0,0,1,.254.392.428.428,0,0,1-.254.391l-.509.229v1.8a.43.43,0,0,1,.215.371v2.787Zm-5.577-4.548a.138.138,0,0,1,.081.026l.915.666a.136.136,0,0,0,.079.026.139.139,0,0,0,.112-.058.132.132,0,0,0,.019-.121l-.35-1.076a.136.136,0,0,1,.049-.152l.916-.689a.15.15,0,0,0,.047-.169.136.136,0,0,0-.128-.1h-1.132c-.073,0-.114-.022-.13-.07l-.349-1.065a.129.129,0,0,0-.126-.091.138.138,0,0,0-.133.1l-.349,1.056c-.016.048-.06.073-.13.073h-1.132a.136.136,0,0,0-.128.1.15.15,0,0,0,.047.169l.916.678a.145.145,0,0,1,.049.158l-.35,1.08a.132.132,0,0,0,.019.122.139.139,0,0,0,.111.058.133.133,0,0,0,.079-.026l.916-.664A.133.133,0,0,1,215.124-231.9Z" transform="translate(1445 -3333.462)" fill="#7811ff"/>
      <g id="Group_11371" data-name="Group 11371" transform="translate(1.961 9.553)">
        <path id="Path_13297" data-name="Path 13297" d="M275.333,183.683a1.073,1.073,0,0,0,.142.01,1.519,1.519,0,0,0,1.51-1.549V167.195c-.132-.016-.461-.03-.593-.042v-.966a.9.9,0,0,0-.805-.907,28.007,28.007,0,0,0-5.508-.022c-.27.028-.539.061-.812.1-2.542.36-5.133,1.23-6.766,3.141l0,0v17.885a3.112,3.112,0,0,0,.671-.334c1.2-.954,3.965-2.554,9.055-2.554A27.406,27.406,0,0,1,275.333,183.683Zm-10.3-13.349a13.183,13.183,0,0,1,8.143-1.55.407.407,0,0,1-.086.81,12.4,12.4,0,0,0-7.662,1.453.407.407,0,0,1-.395-.713Zm0,2.909a13.181,13.181,0,0,1,8.143-1.55.407.407,0,0,1-.086.81,12.4,12.4,0,0,0-7.662,1.453.407.407,0,0,1-.395-.713Zm0,2.909a13.182,13.182,0,0,1,8.143-1.55.407.407,0,0,1-.086.81,12.4,12.4,0,0,0-7.662,1.453.407.407,0,0,1-.395-.713Zm.395,3.622a.407.407,0,1,1-.395-.713,13.182,13.182,0,0,1,8.143-1.55.407.407,0,0,1-.086.81A12.4,12.4,0,0,0,265.423,179.775Z" transform="translate(1396 -3735.507)" fill="#7811ff"/>
        <path id="Path_13298" data-name="Path 13298" d="M36.2,145.811h0a4.244,4.244,0,0,0-.822-.2c-.225,0,.115,0,0,0s-.1.017-.1.017h.1a37.172,37.172,0,0,0-5.469.075.962.962,0,0,0-.82.955v.966c-.263.011-.461.026-.593.042V162.61a1.534,1.534,0,0,0,1.529,1.549,1.506,1.506,0,0,0,.169-.01,27.383,27.383,0,0,1,3.107-.187c5.088,0,7.825,1.6,9.026,2.554a3.071,3.071,0,0,0,.654.334V148.94C41.34,147.016,38.706,146.167,36.2,145.811Zm4.358,14.271a.407.407,0,0,1-.554.159,12.4,12.4,0,0,0-7.662-1.453.407.407,0,0,1-.086-.81,13.184,13.184,0,0,1,8.143,1.55A.407.407,0,0,1,40.562,160.082Zm0-2.909a.407.407,0,0,1-.554.159,12.406,12.406,0,0,0-7.662-1.453.407.407,0,1,1-.086-.81,13.183,13.183,0,0,1,8.143,1.55A.407.407,0,0,1,40.562,157.173Zm0-2.909a.407.407,0,0,1-.554.159,12.4,12.4,0,0,0-7.662-1.453.407.407,0,1,1-.086-.81,13.186,13.186,0,0,1,8.143,1.55A.407.407,0,0,1,40.562,154.263Zm0-2.909a.407.407,0,0,1-.554.159,12.4,12.4,0,0,0-7.662-1.453.407.407,0,1,1-.086-.81A13.185,13.185,0,0,1,40.4,150.8.407.407,0,0,1,40.562,151.354Z" transform="translate(1614.592 -3715.974)" fill="#7811ff"/>
        <path id="Path_13299" data-name="Path 13299" d="M297.615,453.731c-6.833-.722-10.946.8-13.093,2.12h12.984a1.072,1.072,0,0,0,1.105-1.074v-1.932A.89.89,0,0,1,297.615,453.731Z" transform="translate(1375.428 -4004.275)" fill="#7811ff"/>
        <path id="Path_13300" data-name="Path 13300" d="M13.512,453.731a.9.9,0,0,1-1.012-.886v1.932a1.1,1.1,0,0,0,1.135,1.074H26.618C24.473,454.534,20.345,453.01,13.512,453.731Z" transform="translate(1629.539 -4004.275)" fill="#7811ff"/>
      </g>
    </g>
    <path id="Path_13302" data-name="Path 13302" d="M3.036,0a1.377,1.377,0,0,1-1-.352,1.315,1.315,0,0,1-.363-.99V-14.168a1.315,1.315,0,0,1,.363-.99,1.377,1.377,0,0,1,1-.352h7.942a1.531,1.531,0,0,1,.99.286.989.989,0,0,1,.352.814,1.047,1.047,0,0,1-.352.847,1.491,1.491,0,0,1-.99.3H4.444V-9h6.094a1.531,1.531,0,0,1,.99.286,1.014,1.014,0,0,1,.352.836.989.989,0,0,1-.352.814,1.531,1.531,0,0,1-.99.286H4.444v4.532h6.534a1.491,1.491,0,0,1,.99.3,1.047,1.047,0,0,1,.352.847.989.989,0,0,1-.352.814,1.531,1.531,0,0,1-.99.286ZM23.364-15.62a1.466,1.466,0,0,1,1.012.352,1.177,1.177,0,0,1,.4.924V-1.188a1.237,1.237,0,0,1-.374.946,1.386,1.386,0,0,1-.99.352,1.386,1.386,0,0,1-.99-.352,1.237,1.237,0,0,1-.374-.946v-.55a3.444,3.444,0,0,1-1.4,1.408,4.216,4.216,0,0,1-2.079.506,4.459,4.459,0,0,1-2.475-.7A4.668,4.668,0,0,1,14.4-2.519a6.88,6.88,0,0,1-.6-2.959A6.662,6.662,0,0,1,14.4-8.4a4.583,4.583,0,0,1,1.683-1.936,4.55,4.55,0,0,1,2.486-.682,4.306,4.306,0,0,1,2.068.484,3.358,3.358,0,0,1,1.386,1.364v-5.214a1.166,1.166,0,0,1,.363-.891A1.372,1.372,0,0,1,23.364-15.62ZM19.294-1.958a2.446,2.446,0,0,0,2.035-.9,4.059,4.059,0,0,0,.715-2.574A4.011,4.011,0,0,0,21.329-8a2.434,2.434,0,0,0-2.013-.891,2.5,2.5,0,0,0-2.046.88,3.882,3.882,0,0,0-.726,2.53,4.11,4.11,0,0,0,.726,2.6A2.429,2.429,0,0,0,19.294-1.958ZM36.1-10.978a1.417,1.417,0,0,1,1.012.352,1.237,1.237,0,0,1,.374.946v8.536A1.193,1.193,0,0,1,37.1-.22a1.426,1.426,0,0,1-1,.352,1.327,1.327,0,0,1-.946-.33,1.176,1.176,0,0,1-.352-.9v-.55A3.5,3.5,0,0,1,33.44-.3,3.943,3.943,0,0,1,31.5.176q-3.96,0-3.96-4.444V-9.68a1.237,1.237,0,0,1,.374-.946,1.386,1.386,0,0,1,.99-.352,1.417,1.417,0,0,1,1.012.352,1.237,1.237,0,0,1,.374.946v5.434a2.6,2.6,0,0,0,.462,1.694A1.792,1.792,0,0,0,32.208-2a2.368,2.368,0,0,0,1.837-.759,2.87,2.87,0,0,0,.693-2.013V-9.68a1.237,1.237,0,0,1,.374-.946A1.386,1.386,0,0,1,36.1-10.978ZM41.954,0a1.377,1.377,0,0,1-1-.352,1.315,1.315,0,0,1-.363-.99V-14.168a1.315,1.315,0,0,1,.363-.99,1.377,1.377,0,0,1,1-.352H46.31a8.14,8.14,0,0,1,5.907,2.035,7.579,7.579,0,0,1,2.1,5.709,7.608,7.608,0,0,1-2.1,5.731A8.14,8.14,0,0,1,46.31,0Zm4.18-2.31q5.346,0,5.346-5.456,0-5.434-5.346-5.434H43.428V-2.31ZM61.6-11.022a4.481,4.481,0,0,1,3.333,1.111,4.651,4.651,0,0,1,1.089,3.377v5.368a1.241,1.241,0,0,1-.352.935A1.333,1.333,0,0,1,64.7.11a1.287,1.287,0,0,1-.935-.352,1.229,1.229,0,0,1-.363-.924V-1.65A2.87,2.87,0,0,1,62.227-.308a3.53,3.53,0,0,1-1.859.484,4.317,4.317,0,0,1-1.958-.44,3.483,3.483,0,0,1-1.386-1.21,3.057,3.057,0,0,1-.506-1.716,2.718,2.718,0,0,1,.6-1.87,3.636,3.636,0,0,1,1.969-.99,17.931,17.931,0,0,1,3.762-.308h.55v-.506a2.253,2.253,0,0,0-.462-1.573,1.966,1.966,0,0,0-1.5-.495,4.747,4.747,0,0,0-1.3.187q-.66.187-1.562.539a2.2,2.2,0,0,1-.836.286.827.827,0,0,1-.649-.286,1.087,1.087,0,0,1-.253-.748,1.126,1.126,0,0,1,.187-.649,1.775,1.775,0,0,1,.627-.517,7.171,7.171,0,0,1,1.837-.66A9.478,9.478,0,0,1,61.6-11.022ZM60.918-1.8a2.35,2.35,0,0,0,1.793-.737,2.666,2.666,0,0,0,.693-1.9v-.462h-.4a15.177,15.177,0,0,0-2.288.132,2.221,2.221,0,0,0-1.166.462,1.176,1.176,0,0,0-.352.9,1.493,1.493,0,0,0,.5,1.155A1.746,1.746,0,0,0,60.918-1.8ZM72.71.176A7.073,7.073,0,0,1,68.838-.77a1.312,1.312,0,0,1-.7-1.188,1.043,1.043,0,0,1,.242-.715.761.761,0,0,1,.594-.275A2.43,2.43,0,0,1,70-2.6a9.63,9.63,0,0,0,1.287.506,5.242,5.242,0,0,0,1.485.176,2.824,2.824,0,0,0,1.441-.308.954.954,0,0,0,.517-.858.827.827,0,0,0-.209-.594,1.916,1.916,0,0,0-.748-.407,15.73,15.73,0,0,0-1.639-.429,6.3,6.3,0,0,1-2.805-1.122,2.5,2.5,0,0,1-.847-2,2.889,2.889,0,0,1,.572-1.749,3.707,3.707,0,0,1,1.573-1.21,5.731,5.731,0,0,1,2.277-.429,6.825,6.825,0,0,1,1.782.231,5.417,5.417,0,0,1,1.54.671,1.328,1.328,0,0,1,.7,1.166,1.129,1.129,0,0,1-.242.737.739.739,0,0,1-.594.3,1.19,1.19,0,0,1-.473-.1,6.348,6.348,0,0,1-.583-.3,9.225,9.225,0,0,0-1.1-.5A3.431,3.431,0,0,0,72.8-8.976a2.215,2.215,0,0,0-1.287.33,1.043,1.043,0,0,0-.473.9.915.915,0,0,0,.484.836,6.931,6.931,0,0,0,1.87.572,10.669,10.669,0,0,1,2.31.7,2.705,2.705,0,0,1,1.2.99,2.872,2.872,0,0,1,.363,1.518,2.821,2.821,0,0,1-1.243,2.4A5.518,5.518,0,0,1,72.71.176Zm13.068-11.2q3.784,0,3.784,4.422v5.412A1.286,1.286,0,0,1,89.2-.22a1.377,1.377,0,0,1-1,.352A1.417,1.417,0,0,1,87.186-.22a1.265,1.265,0,0,1-.374-.968V-6.6a2.546,2.546,0,0,0-.473-1.7,1.876,1.876,0,0,0-1.485-.539,2.51,2.51,0,0,0-1.9.748,2.777,2.777,0,0,0-.715,2v4.906a1.265,1.265,0,0,1-.374.968A1.417,1.417,0,0,1,80.85.132a1.377,1.377,0,0,1-1-.352,1.286,1.286,0,0,1-.363-.968V-14.344a1.193,1.193,0,0,1,.385-.924,1.426,1.426,0,0,1,1-.352,1.442,1.442,0,0,1,.99.33,1.141,1.141,0,0,1,.374.9v5.126A3.6,3.6,0,0,1,83.7-10.571,4.633,4.633,0,0,1,85.778-11.022Z" transform="translate(69.152 89.62)" fill="#090e30"/>
  </g>
</svg>
